<svg width="103" height="103" viewBox="0 0 103 103" fill="none" xmlns="http://www.w3.org/2000/svg">
<g filter="url(#filter0_b_23_104)">
<circle cx="51.5" cy="51.5" r="51.5" fill="url(#paint0_linear_23_104)" fill-opacity="0.5"/>
<circle cx="51.5" cy="51.5" r="49.5" stroke="url(#paint1_linear_23_104)" stroke-width="4"/>
</g>
<path d="M70 26.6667H32C28.5022 26.6667 25.6667 29.5022 25.6667 33V71C25.6667 74.4978 28.5022 77.3334 32 77.3334H70C73.4978 77.3334 76.3334 74.4978 76.3334 71V33C76.3334 29.5022 73.4978 26.6667 70 26.6667Z" stroke="url(#paint2_linear_23_104)" stroke-width="4" stroke-linecap="round" stroke-linejoin="round"/>
<path d="M38.3333 48.8333V64.6666" stroke="url(#paint3_linear_23_104)" stroke-width="4" stroke-linecap="round" stroke-linejoin="round"/>
<path d="M38.3333 39.3333V39.3646" stroke="url(#paint4_linear_23_104)" stroke-width="4" stroke-linecap="round" stroke-linejoin="round"/>
<path d="M51 64.6666V48.8333" stroke="url(#paint5_linear_23_104)" stroke-width="4" stroke-linecap="round" stroke-linejoin="round"/>
<path d="M63.6667 64.6666V55.1666C63.6667 53.4869 62.9994 51.876 61.8117 50.6883C60.6239 49.5006 59.013 48.8333 57.3333 48.8333C55.6536 48.8333 54.0427 49.5006 52.855 50.6883C51.6673 51.876 51 53.4869 51 55.1666" stroke="url(#paint6_linear_23_104)" stroke-width="4" stroke-linecap="round" stroke-linejoin="round"/>
<defs>
<filter id="filter0_b_23_104" x="-10" y="-10" width="123" height="123" filterUnits="userSpaceOnUse" color-interpolation-filters="sRGB">
<feFlood flood-opacity="0" result="BackgroundImageFix"/>
<feGaussianBlur in="BackgroundImage" stdDeviation="5"/>
<feComposite in2="SourceAlpha" operator="in" result="effect1_backgroundBlur_23_104"/>
<feBlend mode="normal" in="SourceGraphic" in2="effect1_backgroundBlur_23_104" result="shape"/>
</filter>
<linearGradient id="paint0_linear_23_104" x1="10.5" y1="-21.5" x2="103" y2="161.5" gradientUnits="userSpaceOnUse">
<stop stop-color="#DDD6FE"/>
<stop offset="1" stop-color="#D1FAE5"/>
</linearGradient>
<linearGradient id="paint1_linear_23_104" x1="125.5" y1="-35" x2="-17" y2="121" gradientUnits="userSpaceOnUse">
<stop stop-color="#6D28D9"/>
<stop offset="1" stop-color="#5D5FEF"/>
</linearGradient>
<linearGradient id="paint2_linear_23_104" x1="51" y1="26.6667" x2="51" y2="77.3334" gradientUnits="userSpaceOnUse">
<stop stop-color="#5DA3EF"/>
<stop offset="1" stop-color="#6D28D9"/>
</linearGradient>
<linearGradient id="paint3_linear_23_104" x1="38.8333" y1="48.8333" x2="38.8333" y2="64.6666" gradientUnits="userSpaceOnUse">
<stop stop-color="#5DA3EF"/>
<stop offset="1" stop-color="#6D28D9"/>
</linearGradient>
<linearGradient id="paint4_linear_23_104" x1="38.8333" y1="39.3333" x2="38.8333" y2="39.3646" gradientUnits="userSpaceOnUse">
<stop stop-color="#5DA3EF"/>
<stop offset="1" stop-color="#6D28D9"/>
</linearGradient>
<linearGradient id="paint5_linear_23_104" x1="51.5" y1="48.8333" x2="51.5" y2="64.6666" gradientUnits="userSpaceOnUse">
<stop stop-color="#5DA3EF"/>
<stop offset="1" stop-color="#6D28D9"/>
</linearGradient>
<linearGradient id="paint6_linear_23_104" x1="57.3333" y1="48.8333" x2="57.3333" y2="64.6666" gradientUnits="userSpaceOnUse">
<stop stop-color="#5DA3EF"/>
<stop offset="1" stop-color="#6D28D9"/>
</linearGradient>
</defs>
</svg>
